<?xml version="1.0" encoding="UTF-8"?>
<svg version="1.1" xmlns="http://www.w3.org/2000/svg" width="530" height="524">
<path d="M0 0 C174.9 0 349.8 0 530 0 C530 172.92 530 345.84 530 524 C355.1 524 180.2 524 0 524 C0 351.08 0 178.16 0 0 Z " fill="#FCFCF9" transform="translate(0,0)"/>
<path d="M0 0 C1.28093033 -0.002062 1.28093033 -0.002062 2.58773804 -0.00416565 C3.5213768 -0.00057037 4.45501556 0.0030249 5.41694641 0.00672913 C6.89526947 0.00651009 6.89526947 0.00651009 8.40345764 0.00628662 C11.66619557 0.00698417 14.92887664 0.01476924 18.19160461 0.02259827 C20.45176156 0.02446301 22.71191892 0.02588665 24.97207642 0.02688599 C30.92494317 0.03070676 36.87778558 0.04053332 42.8306427 0.05158997 C48.90343395 0.06181352 54.97622912 0.06638563 61.04902649 0.07142639 C72.96765698 0.08215596 84.8862694 0.09922713 96.80488586 0.12025452 C96.80488586 0.78025452 96.80488586 1.44025452 96.80488586 2.12025452 C98.01144836 2.39869202 98.01144836 2.39869202 99.24238586 2.68275452 C107.67182213 6.08410599 115.9311975 13.42656353 120.67988586 21.18275452 C122.55243347 26.07218439 122.92969021 30.8397889 122.96310425 36.04283142 C122.97778748 37.78431206 122.97778748 37.78431206 122.99276733 39.56097412 C122.9985228 40.82045364 123.00427826 42.07993317 123.01020813 43.37757874 C123.01979675 44.72820326 123.02980739 46.07882484 123.04020691 47.42944336 C123.06715554 51.08391131 123.08821921 54.73839205 123.10820889 58.3929038 C123.13013067 62.21660513 123.15748897 66.04026752 123.18426514 69.86393738 C123.23410852 77.09919833 123.27907822 84.334481 123.3222875 91.56978428 C123.37173143 99.80921195 123.42662295 108.04860052 123.48196709 116.28799033 C123.59565883 133.23204223 123.70252558 150.17613046 123.80488586 167.12025452 C124.76511437 167.12383705 124.76511437 167.12383705 125.74474144 167.12749195 C141.35389184 167.18674551 156.96286555 167.26236135 172.5718441 167.35596943 C180.12037633 167.40084793 187.66886221 167.44028068 195.21748352 167.46669006 C201.80036016 167.48973476 208.38308917 167.52320441 214.96584857 167.56895608 C218.44822064 167.59280157 221.93044729 167.61158689 225.41289902 167.61786842 C229.30983663 167.62509361 233.20641138 167.65560364 237.10322571 167.68788147 C238.245466 167.68644638 239.3877063 167.68501129 240.56455994 167.68353271 C252.51758268 167.82308441 262.23867164 170.7236473 270.92207336 179.18275452 C275.80488586 184.51658986 275.80488586 184.51658986 275.80488586 188.12025452 C276.46488586 188.12025452 277.12488586 188.12025452 277.80488586 188.12025452 C279.40843688 191.62802236 280.0252545 194.26380331 279.80488586 198.12025452 C280.46488586 198.12025452 281.12488586 198.12025452 281.80488586 198.12025452 C281.80488586 228.81025452 281.80488586 259.50025452 281.80488586 291.12025452 C281.14488586 291.12025452 280.48488586 291.12025452 279.80488586 291.12025452 C279.74301086 292.08962952 279.68113586 293.05900452 279.61738586 294.05775452 C278.56346882 301.37579819 274.19525736 307.28274164 268.80488586 312.12025452 C268.10363586 312.88337952 267.40238586 313.64650452 266.67988586 314.43275452 C264.80488586 316.12025452 264.80488586 316.12025452 261.80488586 316.12025452 C261.80488586 316.78025452 261.80488586 317.44025452 261.80488586 318.12025452 C253.30567453 321.48409154 245.98144803 322.68972008 236.87617493 322.57435608 C235.64547272 322.57494019 234.41477051 322.57552429 233.14677429 322.5761261 C229.81247893 322.57383722 226.47920746 322.55395222 223.14509296 322.52583027 C219.64579677 322.50061212 216.14648303 322.4984587 212.64710999 322.49372864 C206.03876136 322.48135819 199.43068139 322.44861824 192.8224504 322.40833068 C185.29151918 322.36342673 177.76057429 322.34157941 170.22954226 322.32154894 C154.75450189 322.27987927 139.27972869 322.2096445 123.80488586 322.12025452 C123.80765124 322.76887074 123.81041662 323.41748695 123.8132658 324.08575821 C123.87969476 339.9124505 123.92924836 355.73909388 123.96032238 371.56589127 C123.9757513 379.21980567 123.99676418 386.87362666 124.03120422 394.52748108 C124.06122899 401.20331284 124.08048971 407.8790769 124.08715135 414.55497432 C124.09104162 418.08554011 124.10009988 421.61591233 124.12207603 425.14641571 C124.14648494 429.10029563 124.14684752 433.05399106 124.14546204 437.00794983 C124.16164078 438.73857666 124.16164078 438.73857666 124.17814636 440.50416565 C124.14570909 449.10515189 123.52014607 457.99985966 118.68379211 465.33900452 C117.53717102 466.46822327 117.53717102 466.46822327 116.36738586 467.62025452 C115.60554993 468.39369202 114.84371399 469.16712952 114.05879211 469.96400452 C113.31500305 470.67556702 112.57121399 471.38712952 111.80488586 472.12025452 C111.09332336 472.84728577 110.38176086 473.57431702 109.64863586 474.32337952 C106.78675375 477.11250192 104.80945941 478.12025452 100.80488586 478.12025452 C100.80488586 478.78025452 100.80488586 479.44025452 100.80488586 480.12025452 C95.4457882 482.32057628 90.6464542 482.43465067 84.95088196 482.45838928 C83.97441711 482.46992538 82.99795227 482.48146149 81.99189758 482.49334717 C78.77068957 482.52757398 75.54967303 482.54614181 72.32832336 482.56166077 C71.22348225 482.56856367 70.11864113 482.57546658 68.98031998 482.58257866 C63.13098768 482.61838187 57.2817514 482.6419366 51.43232727 482.65565491 C45.41337161 482.67218159 39.39559512 482.73058589 33.37703514 482.79879856 C28.72877884 482.84373773 24.08080121 482.85716093 19.43234634 482.86227226 C17.21490332 482.8701321 14.99746771 482.88967339 12.78023911 482.92149544 C-9.47105281 483.21973919 -9.47105281 483.21973919 -19.19511414 475.12025452 C-20.01444427 474.47532547 -20.83377441 473.83039642 -21.67793274 473.16592407 C-28.95827131 466.74994401 -33.46497043 458.78695806 -34.52207184 449.13491058 C-35.00456558 440.91255359 -34.90475543 432.68168154 -34.80347776 424.44995737 C-34.7655892 420.84394063 -34.76241577 417.2378837 -34.75532532 413.63169861 C-34.73678699 406.82493397 -34.68770235 400.01875782 -34.62722838 393.21225059 C-34.55981664 385.45399513 -34.52708782 377.69570934 -34.49705577 369.93723321 C-34.43459089 353.99790126 -34.32927464 338.05915422 -34.19511414 322.12025452 C-34.83765483 322.12394169 -35.48019552 322.12762886 -36.14220715 322.13142776 C-51.82736691 322.22003548 -67.51243877 322.28608827 -83.19778728 322.3275032 C-90.78333248 322.34806711 -98.36870989 322.37606843 -105.95414734 322.42201233 C-112.57102559 322.46207046 -119.18778224 322.4877321 -125.8047784 322.4966085 C-129.30358596 322.50179144 -132.80204585 322.51384146 -136.3007412 322.54317474 C-140.22091722 322.57577054 -144.14076321 322.57620186 -148.06108093 322.57435608 C-149.77228874 322.59592773 -149.77228874 322.59592773 -151.51806641 322.61793518 C-159.39839239 322.57805255 -167.03211244 321.60100254 -174.19511414 318.12025452 C-175.5737143 316.49083219 -176.91353116 314.8270353 -178.19511414 313.12025452 C-179.18511414 312.79025452 -180.17511414 312.46025452 -181.19511414 312.12025452 C-182.26151057 310.49526947 -183.24221757 308.81429286 -184.19511414 307.12025452 C-185.71800863 304.97100825 -187.24462919 302.82562947 -188.79277039 300.69447327 C-192.20234428 294.43567328 -192.48850586 287.90056698 -192.4539032 280.94129944 C-192.45740784 280.06047195 -192.46091248 279.17964447 -192.46452332 278.27212524 C-192.47327235 275.38157596 -192.46751414 272.49127473 -192.46073914 269.60072327 C-192.46208811 267.57584588 -192.46403057 265.55096881 -192.46653748 263.52609253 C-192.46947981 259.28881232 -192.46522109 255.05161666 -192.45585632 250.81434631 C-192.44448432 245.40787332 -192.4510127 240.00159942 -192.46300125 234.59513378 C-192.47026264 230.41445442 -192.46791197 226.23382147 -192.46274567 222.05314064 C-192.46141984 220.06102283 -192.46301909 218.06890069 -192.46770477 216.07678795 C-192.51547145 190.05482406 -192.51547145 190.05482406 -188.07011414 184.43275452 C-186.64698914 183.28806702 -186.64698914 183.28806702 -185.19511414 182.12025452 C-183.8966078 180.772645 -182.60550614 179.41787861 -181.32011414 178.05775452 C-173.3068099 170.07451897 -165.14464821 167.89899671 -154.07420349 167.87141418 C-152.88377441 167.87860474 -151.69334534 167.88579529 -150.46684265 167.89320374 C-149.19785629 167.89291168 -147.92886993 167.89261963 -146.62142944 167.89231873 C-143.15908706 167.89174724 -139.69688456 167.90346825 -136.23457456 167.91746664 C-132.60976965 167.93000823 -128.98496119 167.93114719 -125.36013794 167.93351746 C-118.50380902 167.93972218 -111.64754423 167.95611929 -104.79124349 167.97621644 C-96.98229077 167.99860687 -89.17333492 168.00957676 -81.36435807 168.01960731 C-65.30790594 168.04048646 -49.25151824 168.07564275 -33.19511414 168.12025452 C-33.19787951 167.41218186 -33.20064489 166.70410921 -33.20349407 165.97457981 C-33.26983306 148.72191405 -33.31943317 131.46928082 -33.35055065 114.21651554 C-33.36599996 105.87310255 -33.38705231 97.52977486 -33.4214325 89.18641663 C-33.4513943 81.91182106 -33.47070321 74.63728729 -33.47737962 67.36263174 C-33.48128043 63.51302941 -33.49040716 59.66360382 -33.51230431 55.8140583 C-33.53277682 52.18531495 -33.53892639 48.55681992 -33.53443718 44.92802429 C-33.53564663 42.97236959 -33.55173216 41.01674149 -33.56837463 39.06115723 C-33.52674259 27.12938426 -30.89825716 19.08626589 -22.60136414 10.46400452 C-16.61652783 4.93085397 -8.30150542 -0.01031243 0 0 Z " fill="#036BFD" transform="translate(220.1951141357422,27.879745483398438)"/>
<path d="M0 0 C17.15882879 -0.07003506 34.31761307 -0.12296111 51.47655201 -0.15543652 C59.44348232 -0.17091521 67.4103239 -0.19202376 75.37719727 -0.22631836 C82.31992691 -0.25619017 89.26259231 -0.27556771 96.20538443 -0.28226548 C99.88265318 -0.28618154 103.5597381 -0.29540535 107.23694801 -0.31719017 C111.33879426 -0.34129426 115.44031953 -0.34197143 119.54223633 -0.34057617 C120.76574799 -0.351362 121.98925964 -0.36214783 123.24984741 -0.3732605 C124.36463974 -0.36913651 125.47943207 -0.36501251 126.62800598 -0.36076355 C127.59865399 -0.36352893 128.56930201 -0.36629431 129.56936359 -0.36914349 C132 0 132 0 133.81082916 1.17493439 C135.46453159 3.71293426 135.38490576 5.54039823 135.39872742 8.56181335 C135.41126556 9.71867645 135.42380371 10.87553955 135.4367218 12.06745911 C135.43528671 13.33772446 135.43385162 14.60798981 135.43237305 15.91674805 C135.44138845 17.26693623 135.45171513 18.6171162 135.46325684 19.96728516 C135.49087939 23.63436742 135.5001184 27.30129463 135.50611091 30.96846747 C135.51548098 34.80023348 135.5416832 38.63188304 135.56611633 42.46357727 C135.60982278 49.72018602 135.63834421 56.97677222 135.66143972 64.23347265 C135.68846924 72.49463687 135.73238207 80.75568417 135.77772844 89.016765 C135.87063404 106.01111652 135.94228761 123.00549328 136 140 C132.72440704 135.86990453 131.87469561 132.94064834 131.87974548 127.70393372 C131.87768349 126.05698769 131.87768349 126.05698769 131.87557983 124.37677002 C131.87917511 123.17195984 131.88277039 121.96714966 131.88647461 120.72583008 C131.88632858 119.45742783 131.88618256 118.18902557 131.8860321 116.88218689 C131.88574489 113.40312252 131.89162943 109.92409254 131.89860606 106.44503617 C131.90485215 102.80952519 131.9054444 99.17401344 131.90663147 95.53849792 C131.90974107 88.65372618 131.91794948 81.76897028 131.92798096 74.88420552 C131.93915359 67.04631871 131.94465545 59.20843114 131.94967639 51.37053835 C131.96013239 35.24701628 131.97772467 19.12351016 132 3 C131.02512744 3.00276538 131.02512744 3.00276538 130.03056049 3.00558662 C114.21465846 3.04976068 98.3987779 3.08285414 82.58282948 3.10362434 C74.9343475 3.1139357 67.28590671 3.12799334 59.63745117 3.15087891 C52.97084309 3.17081709 46.30426485 3.18371746 39.63762778 3.18817699 C36.10789178 3.19078364 32.57824113 3.19690748 29.04853249 3.21146011 C25.10761544 3.22757624 21.1667818 3.22797941 17.22583008 3.22705078 C16.05626266 3.23424133 14.88669525 3.24143188 13.6816864 3.24884033 C12.06848007 3.24471634 12.06848007 3.24471634 10.42268372 3.24050903 C9.49075101 3.24235262 8.5588183 3.24419621 7.59864521 3.24609566 C4.75375351 2.97668008 2.58943204 2.18019948 0 1 C0 0.67 0 0.34 0 0 Z " fill="#2371E5" transform="translate(54,347)"/>
<path d="M0 0 C0.85395355 -0.00274933 1.7079071 -0.00549866 2.58773804 -0.0083313 C3.98819618 0.00245453 3.98819618 0.00245453 5.41694641 0.01345825 C6.40249512 0.0131662 7.38804382 0.01287415 8.40345764 0.01257324 C11.66626236 0.01396837 14.92883971 0.02953831 18.19160461 0.04519653 C20.45176061 0.04892601 22.71191822 0.05177329 24.97207642 0.05377197 C30.92497714 0.06141356 36.87778049 0.08106663 42.8306427 0.10317993 C48.9034239 0.12362701 54.9762208 0.13277126 61.04902649 0.14285278 C72.96768909 0.16431197 84.88627939 0.1984543 96.80488586 0.24050903 C96.80488586 0.90050903 96.80488586 1.56050903 96.80488586 2.24050903 C97.60926086 2.42613403 98.41363586 2.61175903 99.24238586 2.80300903 C107.67182213 6.20436051 115.9311975 13.54681805 120.67988586 21.30300903 C122.55243347 26.1924389 122.92969021 30.96004341 122.96310425 36.16308594 C122.97778748 37.90456657 122.97778748 37.90456657 122.99276733 39.68122864 C122.9985228 40.94070816 123.00427826 42.20018768 123.01020813 43.49783325 C123.01979675 44.84845777 123.02980739 46.19907935 123.04020691 47.54969788 C123.06715554 51.20416583 123.08821921 54.85864657 123.10820889 58.51315832 C123.13013067 62.33685965 123.15748897 66.16052203 123.18426514 69.98419189 C123.23410852 77.21945285 123.27907822 84.45473552 123.3222875 91.6900388 C123.38098157 101.4709263 123.44722339 111.25176252 123.51303768 121.03260422 C123.61648163 136.43520456 123.70985764 151.83784915 123.80488586 167.24050903 C186.17488586 167.73550903 186.17488586 167.73550903 249.80488586 168.24050903 C249.80488586 168.57050903 249.80488586 168.90050903 249.80488586 169.24050903 C233.26341518 169.26383792 216.7219498 169.28148816 200.18046665 169.29232121 C192.50049859 169.29748419 184.82054074 169.30452692 177.14057922 169.31594849 C170.44910597 169.32589527 163.75764011 169.33236245 157.06615967 169.33459753 C153.52092985 169.33590465 149.97572118 169.33899056 146.43049812 169.34623909 C142.47919942 169.35425283 138.52792166 169.35450018 134.57661438 169.35403442 C133.39266586 169.3576297 132.20871735 169.36122498 130.9888916 169.3649292 C129.91891937 169.36355453 128.84894714 169.36217987 127.74655151 169.36076355 C126.3431217 169.36214624 126.3431217 169.36214624 124.91133976 169.36355686 C122.80488586 169.24050903 122.80488586 169.24050903 121.80488586 168.24050903 C121.70072601 166.48486726 121.66690359 164.72502442 121.66012573 162.96630859 C121.64977798 161.25031212 121.64977798 161.25031212 121.63922119 159.49964905 C121.63530113 157.59996117 121.63530113 157.59996117 121.63130188 155.66189575 C121.62499985 154.32336714 121.61823445 152.98484063 121.61103821 151.64631653 C121.59633952 148.75651359 121.5846262 145.86671891 121.57509041 142.97689438 C121.55966291 138.40458106 121.53571152 133.83233749 121.51019287 129.2600708 C121.43893167 116.2555482 121.37929846 103.2509848 121.32807922 90.24636841 C121.2997372 83.0695231 121.26433012 75.89274636 121.22142547 68.71597302 C121.19470136 64.17435638 121.17676587 59.63281736 121.16538823 55.09113765 C121.15623305 52.25769787 121.13885669 49.4243518 121.11920929 46.59096718 C121.10822461 44.65885119 121.10698662 42.72668741 121.1060791 40.79454041 C121.15467601 30.17682447 121.15467601 30.17682447 116.55488586 20.86550903 C113.5080067 17.95712437 111.94434802 17.43304216 107.80488586 17.24050903 C107.80488586 16.58050903 107.80488586 15.92050903 107.80488586 15.24050903 C108.46488586 15.24050903 109.12488586 15.24050903 109.80488586 15.24050903 C109.1014902 12.7308529 109.1014902 12.7308529 107.80488586 10.24050903 C105.76382947 9.353576 105.76382947 9.353576 103.80488586 9.24050903 C103.80488586 8.58050903 103.80488586 7.92050903 103.80488586 7.24050903 C103.22738586 7.09613403 102.64988586 6.95175903 102.05488586 6.80300903 C99.97155253 6.2821757 97.8882192 5.76134237 95.80488586 5.24050903 C95.80488586 4.58050903 95.80488586 3.92050903 95.80488586 3.24050903 C61.81488586 2.91050903 27.82488586 2.58050903 -7.19511414 2.24050903 C-4.10617344 0.18121524 -3.48559611 -0.00865987 0 0 Z " fill="#1565D5" transform="translate(220.1951141357422,27.759490966796875)"/>
<path d="M0 0 C0.66 0 1.32 0 2 0 C1.83826325 0.86628084 1.67652651 1.73256168 1.50988865 2.62509346 C1.02880394 5.80934934 0.86213884 8.78206337 0.84178162 11.99850464 C0.8319928 13.17632004 0.82220398 14.35413544 0.81211853 15.56764221 C0.80636307 16.84582321 0.8006076 18.12400421 0.79467773 19.44091797 C0.78508938 20.81124663 0.77507875 22.1815724 0.76467896 23.55189514 C0.73772747 27.26008065 0.71666533 30.96827877 0.69667697 34.67650747 C0.67475698 38.55626291 0.6473978 42.43597994 0.62062073 46.31570435 C0.57077495 53.6572135 0.52580613 60.99874406 0.48259836 68.34029496 C0.42390695 78.26468361 0.35766383 88.18902169 0.29184818 98.11336517 C0.18840049 113.74220933 0.09502696 129.37109712 0 145 C-41.91 145 -83.82 145 -127 145 C-123.72268641 142.81512427 -122.80201564 142.75169164 -119.00764465 142.75949097 C-117.46166847 142.75536697 -117.46166847 142.75536697 -115.88446045 142.75115967 C-114.75445618 142.75835022 -113.6244519 142.76554077 -112.46020508 142.77294922 C-110.67464455 142.77251114 -110.67464455 142.77251114 -108.85301208 142.77206421 C-105.58876264 142.77321957 -102.32468422 142.78325654 -99.06046891 142.79721212 C-95.64918144 142.8097067 -92.23789068 142.81088898 -88.82658386 142.81326294 C-82.36677887 142.81948146 -75.90704149 142.83589728 -69.44726628 142.85596192 C-62.09305353 142.87830937 -54.73883757 142.88931144 -47.38459933 142.89935279 C-32.25636186 142.9202632 -17.12818769 142.95544639 -2 143 C-2.00184359 142.31769601 -2.00368717 141.63539202 -2.00558662 140.93241215 C-2.04981763 124.30562297 -2.08288182 107.67885251 -2.10362434 91.05201817 C-2.11392272 83.01130112 -2.12795547 74.97062342 -2.15087891 66.92993164 C-2.17085692 59.91902496 -2.18372689 52.9081468 -2.18817699 45.89721245 C-2.19077692 42.18738044 -2.1968577 38.47762997 -2.21146011 34.76782417 C-2.22765569 30.61934974 -2.22797686 26.47101574 -2.22705078 22.32250977 C-2.23424133 21.10186829 -2.24143188 19.88122681 -2.24884033 18.62359619 C-2.23308266 12.09048242 -1.69766942 6.31555832 0 0 Z " fill="#B2D8F8" transform="translate(187,51)"/>
<path d="M0 0 C0.66 0.33 1.32 0.66 2 1 C0.6875 3 0.6875 3 -1 5 C-1.99 5 -2.98 5 -4 5 C-4 5.66 -4 6.32 -4 7 C-4.99 7 -5.98 7 -7 7 C-7 7.66 -7 8.32 -7 9 C-8.0725 9.28875 -9.145 9.5775 -10.25 9.875 C-13.01375809 11.01301804 -13.87418367 11.7748359 -15.35546875 14.42578125 C-16.33652871 16.92978627 -17.22247765 19.42596639 -18 22 C-18.66 22 -19.32 22 -20 22 C-19.98839844 22.556875 -19.97679687 23.11375 -19.96484375 23.6875 C-19.95582031 24.450625 -19.94679687 25.21375 -19.9375 26 C-19.92589844 26.7425 -19.91429687 27.485 -19.90234375 28.25 C-20 31 -20 31 -20.4942627 34.44703674 C-21.17853109 39.82453994 -21.16808998 45.18320332 -21.18945312 50.59741211 C-21.19774643 51.73504501 -21.20603973 52.87267792 -21.21458435 54.04478455 C-21.23192167 56.50446659 -21.24710544 58.96416457 -21.26036072 61.42387199 C-21.28148665 65.32099959 -21.30850147 69.21804761 -21.33703613 73.11512756 C-21.39690044 81.38921808 -21.44885343 89.6633517 -21.5 97.9375 C-21.55928359 107.52508333 -21.62171261 117.11262575 -21.69187927 126.70013618 C-21.71834764 130.53159928 -21.7392253 134.36306666 -21.7598877 138.19456482 C-21.77649973 140.55410961 -21.79337236 142.91365259 -21.81054688 145.27319336 C-21.81473129 146.33165466 -21.81891571 147.39011597 -21.82322693 148.48065186 C-21.87289571 154.39591255 -22.23964536 160.13242081 -23 166 C-23.33 166 -23.66 166 -24 166 C-24.07017362 148.03211096 -24.12302903 130.06425763 -24.15543652 112.09626102 C-24.17088582 103.75284804 -24.19193818 95.40952034 -24.22631836 87.06616211 C-24.25628016 79.79156655 -24.27558907 72.51703278 -24.28226548 65.24237722 C-24.28616629 61.39277489 -24.29529303 57.54334931 -24.31719017 53.69380379 C-24.33766269 50.06506043 -24.34381226 46.4365654 -24.33932304 42.80776978 C-24.3405325 40.85211508 -24.35661802 38.89648697 -24.3732605 36.94090271 C-24.3317247 25.0367112 -21.73365872 16.84430569 -13.3359375 8.30859375 C-9.43282222 4.75301613 -5.04856902 1.68285634 0 0 Z " fill="#1159D5" transform="translate(211,30)"/>
<path d="M0 0 C1.06973572 0.24260512 1.06973572 0.24260512 2.16108227 0.49011135 C4.98014997 0.9964348 7.56130791 1.13840668 10.42268372 1.15821838 C11.4981546 1.1680072 12.57362549 1.17779602 13.6816864 1.18788147 C15.43603752 1.19651466 15.43603752 1.19651466 17.22583008 1.20532227 C19.08498047 1.22017166 19.08498047 1.22017166 20.98168945 1.23532104 C24.37177592 1.26146082 27.76183945 1.28334256 31.15196443 1.30332303 C34.69807066 1.32523237 38.24413473 1.35259679 41.79020691 1.37937927 C48.50134309 1.42923939 55.21250277 1.47420292 61.92368478 1.51740164 C69.56576294 1.56683121 77.20779879 1.62172808 84.84983599 1.67708123 C100.56651819 1.79079867 116.28323935 1.89765989 132 2 C131.99943446 2.98562015 131.99943446 2.98562015 131.9988575 3.99115181 C131.99171675 20.03573199 132.01785081 36.07986949 132.0802784 52.12431526 C132.10968022 59.88356632 132.12813218 67.64254537 132.12011719 75.40185547 C132.11315362 82.17090424 132.12743743 88.93953138 132.16643608 95.7084769 C132.18633429 99.287296 132.19613562 102.86545463 132.18042374 106.44430923 C131.72486299 127.0927646 131.72486299 127.0927646 139 146 C139.33 146.66 139.66 147.32 140 148 C136.41859362 146.80619787 135.79039903 145.36157902 133.96484375 142.1796875 C130.72847066 134.86836693 130.72523916 128.17919012 130.77294922 120.27172852 C130.77270815 118.98230063 130.77246708 117.69287275 130.7722187 116.3643713 C130.77176919 112.89227857 130.78331853 109.42032509 130.79743958 105.94826508 C130.80887187 102.68422335 130.80936812 99.42018728 130.81079102 96.15612793 C130.82126474 86.62490034 130.84918722 77.09369839 130.875 67.5625 C130.91625 46.256875 130.9575 24.95125 131 3 C88.1 3 45.2 3 1 3 C0.67 2.01 0.34 1.02 0 0 Z " fill="#CDE5FC" transform="translate(54,348)"/>
<path d="M0 0 C0 0.66 0 1.32 0 2 C-43.56 2 -87.12 2 -132 2 C-131.92084383 43.80971817 -131.92084383 43.80971817 -131.81982422 85.61938477 C-131.81079102 93.71276855 -131.81079102 93.71276855 -131.80911255 97.50376892 C-131.80604489 100.14687123 -131.79976875 102.78978132 -131.78884888 105.43284607 C-131.77251215 109.44037432 -131.77218827 113.4477608 -131.77294922 117.45532227 C-131.765753 118.6292859 -131.75855679 119.80324953 -131.7511425 121.01278782 C-131.76568782 126.73799893 -132.04033785 131.60102553 -134 137 C-135.12874168 133.61377495 -134.73500119 132.40771807 -134 129 C-133.90354754 127.18157646 -133.8542905 125.3602892 -133.84178162 123.53935242 C-133.8319928 122.45546738 -133.82220398 121.37158234 -133.81211853 120.25485229 C-133.80636307 119.07593414 -133.8006076 117.89701599 -133.79467773 116.68237305 C-133.78477814 115.43318588 -133.77487854 114.18399872 -133.76467896 112.8969574 C-133.73853809 109.48001224 -133.71665679 106.06308986 -133.69667697 102.64610648 C-133.6747685 99.07197322 -133.64740365 95.49788181 -133.62062073 91.92378235 C-133.57075945 85.15952204 -133.52579634 78.39523842 -133.48259836 71.63093263 C-133.43316979 63.92839633 -133.37827255 56.22590203 -133.32291877 48.52340639 C-133.20919954 32.68230977 -133.1023387 16.84117448 -133 1 C-132.35339511 0.99576806 -131.70679022 0.99153612 -131.04059124 0.98717594 C-115.31713727 0.8839324 -99.59373115 0.77530411 -83.87035656 0.66066074 C-76.26669542 0.60535066 -68.66302959 0.55187228 -61.05932617 0.50268555 C-54.43299434 0.45981659 -47.80669675 0.41353174 -41.18041784 0.36312145 C-37.67091502 0.33654237 -34.16141889 0.31168983 -30.65187645 0.29092598 C-26.73686572 0.26769928 -22.82193558 0.23684727 -18.90698242 0.20532227 C-17.15587158 0.19668907 -17.15587158 0.19668907 -15.36938477 0.18788147 C-14.30507736 0.17809265 -13.24076996 0.16830383 -12.14421082 0.15821838 C-11.21780887 0.15176583 -10.29140692 0.14531328 -9.33693218 0.1386652 C-1.12354892 -0.34868759 -1.12354892 -0.34868759 0 0 Z " fill="#CEF1FE" transform="translate(477,349)"/>
<path d="M0 0 C0.85395355 -0.00274933 1.7079071 -0.00549866 2.58773804 -0.0083313 C3.98819618 0.00245453 3.98819618 0.00245453 5.41694641 0.01345825 C6.40249512 0.0131662 7.38804382 0.01287415 8.40345764 0.01257324 C11.66626236 0.01396837 14.92883971 0.02953831 18.19160461 0.04519653 C20.45176061 0.04892601 22.71191822 0.05177329 24.97207642 0.05377197 C30.92497714 0.06141356 36.87778049 0.08106663 42.8306427 0.10317993 C48.9034239 0.12362701 54.9762208 0.13277126 61.04902649 0.14285278 C72.96768909 0.16431197 84.88627939 0.1984543 96.80488586 0.24050903 C96.80488586 0.90050903 96.80488586 1.56050903 96.80488586 2.24050903 C97.60926086 2.42613403 98.41363586 2.61175903 99.24238586 2.80300903 C105.78836983 5.44437099 110.92121245 10.2242472 115.80488586 15.24050903 C115.47488586 16.56050903 115.14488586 17.88050903 114.80488586 19.24050903 C112.49488586 18.58050903 110.18488586 17.92050903 107.80488586 17.24050903 C107.80488586 16.58050903 107.80488586 15.92050903 107.80488586 15.24050903 C108.46488586 15.24050903 109.12488586 15.24050903 109.80488586 15.24050903 C109.1014902 12.7308529 109.1014902 12.7308529 107.80488586 10.24050903 C105.76382947 9.353576 105.76382947 9.353576 103.80488586 9.24050903 C103.80488586 8.58050903 103.80488586 7.92050903 103.80488586 7.24050903 C103.22738586 7.09613403 102.64988586 6.95175903 102.05488586 6.80300903 C99.97155253 6.2821757 97.8882192 5.76134237 95.80488586 5.24050903 C95.80488586 4.58050903 95.80488586 3.92050903 95.80488586 3.24050903 C61.81488586 2.91050903 27.82488586 2.58050903 -7.19511414 2.24050903 C-4.10617344 0.18121524 -3.48559611 -0.00865987 0 0 Z " fill="#2A7DE1" transform="translate(220.1951141357422,27.759490966796875)"/>
<path d="M0 0 C1.26898636 -0.00029205 2.53797272 -0.00058411 3.84541321 -0.00088501 C7.30775559 -0.00145649 10.76995809 0.01026452 14.2322681 0.02426291 C17.857073 0.03680449 21.48188146 0.03794346 25.10670471 0.04031372 C31.96303363 0.04651844 38.81929842 0.06291556 45.67559916 0.0830127 C53.48455188 0.10540314 61.29350773 0.11637303 69.10248458 0.12640357 C85.15893671 0.14728273 101.21532442 0.18243902 117.27172852 0.22705078 C117.27172852 0.55705078 117.27172852 0.88705078 117.27172852 1.22705078 C115.31521111 1.24251198 115.31521111 1.24251198 113.31916809 1.25828552 C101.03269726 1.35600116 88.74627728 1.45873361 76.45988941 1.56639004 C70.14319914 1.6215769 63.82650421 1.67499021 57.50976562 1.72436523 C51.41487797 1.77207116 45.32004626 1.82441636 39.22522545 1.87999153 C36.89881469 1.90038683 34.5723886 1.91910456 32.2459507 1.9361248 C28.98991987 1.96023123 25.73399436 1.99027747 22.47802734 2.02172852 C21.51417618 2.02748398 20.55032501 2.03323944 19.55726624 2.03916931 C18.66690674 2.04895813 17.77654724 2.05874695 16.85920715 2.0688324 C16.08951001 2.07528495 15.31981287 2.0817375 14.52679157 2.08838558 C12.03977446 2.24131378 9.71188471 2.73475444 7.27172852 3.22705078 C4.87553915 3.22157378 2.47926705 3.17650794 0.08422852 3.10205078 C-8.36199816 2.97314012 -15.69827973 4.32735956 -22.72827148 9.22705078 C-25.95618703 11.37899448 -27.01227958 11.42791521 -30.72827148 11.22705078 C-23.19745854 0.38268015 -12.10212809 -0.07310051 0 0 Z " fill="#1566D2" transform="translate(69.728271484375,195.77294921875)"/>
<path d="M0 0 C1.64913541 0.73297834 3.29597052 1.47184734 4.92709351 2.24407959 C8.86698866 3.68082899 12.93865707 3.34178114 17.08203125 3.2578125 C18.06972504 3.25083344 19.05741882 3.24385437 20.07504272 3.23666382 C22.20848239 3.22052416 24.34188044 3.19780757 26.47518921 3.16918945 C32.17335105 3.09373989 37.87175515 3.06803599 43.5703125 3.0390625 C45.33609901 3.02851837 45.33609901 3.02851837 47.13755798 3.01776123 C60.15848458 2.95708101 73.17039307 3.20907115 86.1875 3.5 C87.84671982 3.5362851 87.84671982 3.5362851 89.53945923 3.57330322 C95.69315357 3.70841026 101.84663692 3.85058673 108 4 C105.62590155 6.37409845 105.15856436 6.25284634 101.9342804 6.26742554 C100.65796501 6.28022049 100.65796501 6.28022049 99.35586548 6.29327393 C98.42027802 6.29236755 97.48469055 6.29146118 96.52075195 6.29052734 C95.04488365 6.30060318 95.04488365 6.30060318 93.53919983 6.31088257 C90.27217617 6.32994746 87.00535715 6.33379155 83.73828125 6.3359375 C81.47104303 6.34236133 79.20380566 6.34908938 76.93656921 6.35610962 C72.17587361 6.36810491 67.41525067 6.37178831 62.65454102 6.37060547 C56.55908153 6.37040257 50.4640898 6.39766522 44.36874104 6.43214989 C39.6820818 6.4544121 34.99553505 6.45844315 30.30882835 6.45738602 C28.06219056 6.45974451 25.81554978 6.46858196 23.568964 6.48405075 C20.42105283 6.50368903 17.27414878 6.49787976 14.1262207 6.48583984 C13.20075439 6.49707886 12.27528809 6.50831787 11.32177734 6.51989746 C5.37536719 6.46222615 1.91698267 5.37784638 -3 2 C-2.01 1.34 -1.02 0.68 0 0 Z " fill="#2777E0" transform="translate(209,504)"/>
<path d="M0 0 C0 1.65 0 3.3 0 5 C-0.639375 5.20625 -1.27875 5.4125 -1.9375 5.625 C-4.30646148 6.85474601 -4.30646148 6.85474601 -4.5625 9.75 C-4.7790625 11.35875 -4.7790625 11.35875 -5 13 C-5.495 13.886875 -5.99 14.77375 -6.5 15.6875 C-10.74243186 25.0562037 -9.16330036 37.18983067 -9.16796875 47.33984375 C-9.17118842 48.99605843 -9.17455301 50.65227283 -9.17805481 52.30848694 C-9.18400359 55.75685283 -9.18589872 59.2051938 -9.18530273 62.65356445 C-9.18520045 67.07079206 -9.19893984 71.48786134 -9.21607494 75.90505123 C-9.22718144 79.31509641 -9.22922249 82.72510284 -9.22869301 86.13516426 C-9.2298718 87.76464962 -9.2342879 89.39413602 -9.24202538 91.02360344 C-9.25181366 93.29441511 -9.2489538 95.56487615 -9.24291992 97.83569336 C-9.24434494 99.1259996 -9.24576996 100.41630585 -9.24723816 101.74571228 C-9.01223002 104.83902155 -8.55785604 106.39248934 -7 109 C-6.54258823 110.81894739 -6.14957477 112.65495915 -5.8125 114.5 C-5.63332031 115.4384375 -5.45414063 116.376875 -5.26953125 117.34375 C-5.00901936 119.91111354 -5.19329131 121.57415258 -6 124 C-6.65357278 122.77493102 -7.29748233 121.54470484 -7.9375 120.3125 C-8.29714844 119.62800781 -8.65679688 118.94351563 -9.02734375 118.23828125 C-11.29663808 113.01617019 -11.14833423 107.7514779 -11.14526367 102.16162109 C-11.14862228 101.28123169 -11.1519809 100.40084229 -11.15544128 99.49377441 C-11.16492893 96.58698102 -11.16689361 93.68024541 -11.16796875 90.7734375 C-11.17118393 88.74427263 -11.17454821 86.71510799 -11.17805481 84.6859436 C-11.18404139 80.43076033 -11.1858953 76.17559735 -11.18530273 71.92041016 C-11.18520139 66.49032447 -11.19882716 61.06037036 -11.21607494 55.63031578 C-11.22724334 51.43677178 -11.22922042 47.24325904 -11.22869301 43.04970169 C-11.22986685 41.04920627 -11.23425489 39.04870989 -11.24202538 37.04822922 C-11.33414336 10.87279183 -11.33414336 10.87279183 -6.5625 5 C-5.716875 4.34 -4.87125 3.68 -4 3 C-3.4225 2.401875 -2.845 1.80375 -2.25 1.1875 C-1 0 -1 0 0 0 Z " fill="#1D5FCD" transform="translate(39,207)"/>
<path d="M0 0 C1.19598352 4.25211607 1.10971803 8.37180781 1.06591797 12.7565918 C1.06124512 13.64004776 1.05657227 14.52350372 1.05175781 15.43373108 C1.04126234 17.35111915 1.02860197 19.26849632 1.01403427 21.18585777 C0.99199552 24.22569848 0.97792572 27.26547664 0.96633911 30.30537415 C0.93276717 38.94838009 0.89126953 47.59128305 0.82861328 56.23413086 C0.79084252 61.52312266 0.76790354 66.81200754 0.75430679 72.10111427 C0.74627992 74.11166167 0.73271005 76.12219519 0.71337509 78.13266563 C0.6867242 80.95405429 0.67898726 83.77493607 0.67529297 86.59643555 C0.65675766 87.82887497 0.65675766 87.82887497 0.6378479 89.08621216 C0.65514694 94.12767882 1.48654252 98.24659753 3.25750923 102.97121906 C3.98628364 104.96252143 4.52117644 106.93592719 5 109 C4.01 108.67 3.02 108.34 2 108 C1.505 105.03 1.505 105.03 1 102 C0.34 102 -0.32 102 -1 102 C-2.14952017 97.87242152 -2.14769734 93.88375743 -2.14526367 89.62646484 C-2.14862228 88.78362946 -2.1519809 87.94079407 -2.15544128 87.07241821 C-2.16494107 84.28524297 -2.16689426 81.49812793 -2.16796875 78.7109375 C-2.17118324 76.76762874 -2.17454746 74.82432022 -2.17805481 72.88101196 C-2.18404453 68.80396972 -2.18589499 64.72694867 -2.18530273 60.64990234 C-2.1852014 55.44500859 -2.19882408 50.24025215 -2.21607494 45.03539085 C-2.22723941 41.01859931 -2.22922054 37.00184041 -2.22869301 32.98503494 C-2.22986756 31.06744542 -2.23425966 29.14985489 -2.24202538 27.23228073 C-2.30974175 8.77553106 -2.30974175 8.77553106 0 0 Z " fill="#A6CDF2" transform="translate(28,222)"/>
<path d="M0 0 C0.33 0.99 0.66 1.98 1 3 C1.66 3 2.32 3 3 3 C4.60355101 6.50776784 5.22036864 9.14354879 5 13 C5.66 13 6.32 13 7 13 C7 43.69 7 74.38 7 106 C6.67 106 6.34 106 6 106 C5.00471512 88.79195191 4.70501093 71.5847265 4.46777344 54.3536377 C4.41660065 50.69210107 4.36142629 47.03062466 4.30664062 43.36914062 C4.20062523 36.24614633 4.0988655 29.12309744 4 22 C3.67 22 3.34 22 3 22 C2.34 16.39 1.68 10.78 1 5 C0.67 5 0.34 5 0 5 C0 3.35 0 1.7 0 0 Z " fill="#347DE1" transform="translate(495,213)"/>
<path d="M0 0 C0.33 0 0.66 0 1 0 C1.1322621 8.6337701 1.26275558 17.26756456 1.39115143 25.90139294 C1.45085931 29.91287202 1.51111738 33.92434107 1.57275391 37.93579102 C1.70068716 46.28513538 1.82037378 54.63445739 1.92019653 62.98418999 C1.97173191 67.18097945 2.0468235 71.3766305 2.13671875 75.57275391 C2.16467438 77.41958719 2.19207588 79.26642901 2.21875 81.11328125 C2.24199341 81.893582 2.26523682 82.67388275 2.28918457 83.47782898 C2.38244999 93.13033361 -0.8786086 101.59509104 -7 109 C-9.24213151 111.18360197 -11.52594069 113.07023374 -14 115 C-14.99 114.67 -15.98 114.34 -17 114 C-16.67 113.01 -16.34 112.02 -16 111 C-14.515 110.505 -14.515 110.505 -13 110 C-12.34 109.01 -11.68 108.02 -11 107 C-10.201315 106.27924286 -9.40263 105.55848572 -8.57974243 104.81588745 C-5.43927974 101.38795241 -4.15109456 98.31317984 -2.72412109 93.94580078 C-2.46652197 93.15812883 -2.20892284 92.37045689 -1.94351768 91.55891609 C0.81403017 82.36340021 0.75842036 73.38528322 0.5859375 63.8671875 C0.57470833 62.00962718 0.56618582 60.15204876 0.56021118 58.29446411 C0.53760486 53.47072866 0.47893565 48.64812558 0.4119873 43.8248291 C0.34994579 38.8768647 0.32306583 33.9287123 0.29296875 28.98046875 C0.22915624 19.31982251 0.1271319 9.66000641 0 0 Z " fill="#0A5DE7" transform="translate(499,229)"/>
<path d="M0 0 C16.51636051 -0.11703002 33.03258561 -0.20508399 49.54926109 -0.25906086 C57.21901726 -0.28479437 64.88851514 -0.3198512 72.55810547 -0.37719727 C79.24637109 -0.42718187 85.93444956 -0.45932627 92.62289679 -0.47044247 C96.16137412 -0.47693601 99.69931626 -0.49209412 103.23762131 -0.52865028 C107.19676155 -0.56921895 111.15538799 -0.56993979 115.11474609 -0.56762695 C116.27568787 -0.58560333 117.43662964 -0.60357971 118.63275146 -0.62210083 C127.36684046 -0.56706371 134.00459848 1.48024152 140.625 7.3125 C141.07875 7.869375 141.5325 8.42625 142 9 C139.69 8.67 137.38 8.34 135 8 C135 7.34 135 6.68 135 6 C120.8543262 1.04762188 106.85464369 1.5660543 92.0389595 1.7852478 C86.46740075 1.85971579 80.89516205 1.8810064 75.32322884 1.91294479 C73.17717746 1.92581974 71.03115127 1.94106779 68.88511658 1.95645142 C53.93922487 2.05412768 39.00525036 1.80386268 24.0625 1.5 C22.83329834 1.4757193 21.60409668 1.4514386 20.33764648 1.42642212 C13.55825115 1.29220326 6.77903788 1.15120576 0 1 C0 0.67 0 0.34 0 0 Z " fill="#0058E7" transform="translate(347,197)"/>
<path d="M0 0 C3.75651402 3.15062466 4.43499907 5.19928887 5 10 C5.08418116 11.9474767 5.1220695 13.89735477 5.12025452 15.84664917 C5.12162918 16.99080795 5.12300385 18.13496674 5.12442017 19.313797 C5.12082489 20.55457504 5.11722961 21.79535309 5.11352539 23.07373047 C5.11367142 24.39133865 5.11381744 25.70894684 5.1139679 27.06648254 C5.11425409 30.66726582 5.10838617 34.26801559 5.10139394 37.8687911 C5.09513072 41.63641279 5.09455425 45.40403529 5.09336853 49.17166138 C5.09026396 56.30070316 5.08206237 63.42972956 5.07201904 70.55876458 C5.06083074 78.67724773 5.05534061 86.79573163 5.05032361 94.91422057 C5.03987901 111.60948938 5.02229652 128.30474272 5 145 C4.67 145 4.34 145 4 145 C3.99761165 144.3438417 3.99522329 143.68768339 3.99276257 143.0116415 C3.93340866 126.98348115 3.85773008 110.95549126 3.76428509 94.92749691 C3.71948046 87.17620651 3.68003129 79.42496049 3.65356445 71.67358398 C3.63045928 64.91084139 3.59692396 58.14824106 3.55129844 51.38561159 C3.52753334 47.81086052 3.50869598 44.23624886 3.50238609 40.66142082 C3.64541138 20.1213899 3.64541138 20.1213899 0 0 Z " fill="#0259EC" transform="translate(337,49)"/>
<path d="M0 0 C16.47238778 -0.02336326 32.94477018 -0.04099603 49.41717052 -0.05181217 C57.06563559 -0.05696784 64.71409037 -0.06399667 72.36254883 -0.07543945 C79.0291567 -0.08540855 85.69575711 -0.09185874 92.36237222 -0.09408849 C95.89208004 -0.09539181 99.42176653 -0.09845376 102.95146751 -0.10573006 C106.89237238 -0.11378809 110.83325639 -0.1139897 114.77416992 -0.11352539 C115.94373734 -0.11712067 117.11330475 -0.12071594 118.3183136 -0.12442017 C119.93151993 -0.12235817 119.93151993 -0.12235817 121.57731628 -0.12025452 C122.50924899 -0.12117631 123.4411817 -0.1220981 124.40135479 -0.12304783 C127.02618809 0.00124003 129.44119416 0.41687959 132 1 C132 1.66 132 2.32 132 3 C132.99 3.33 133.98 3.66 135 4 C134.34 4.33 133.68 4.66 133 5 C132.05869736 4.53454269 131.11739471 4.06908539 130.14756775 3.58952332 C124.83593612 1.19152448 119.37056375 1.56049318 113.63891602 1.56762695 C111.7939579 1.55233948 111.7939579 1.55233948 109.91172791 1.53674316 C106.55675002 1.51181022 103.20220924 1.49990291 99.84717679 1.49388909 C96.33440576 1.48447843 92.82175999 1.45827297 89.30906677 1.43388367 C82.66528939 1.39028874 76.02153642 1.36169887 69.37765974 1.33856028 C61.81045899 1.31147091 54.24338471 1.2675618 46.67627442 1.22227156 C31.11758138 1.12952574 15.5588645 1.0577991 0 1 C0 0.67 0 0.34 0 0 Z " fill="#DAFCFE" transform="translate(345,194)"/>
<path d="M0 0 C0.71394015 0.16173675 1.42788031 0.32347349 2.16345501 0.49011135 C4.96947867 0.99451358 7.5366814 1.13834174 10.38471985 1.15821838 C11.98530495 1.17290161 11.98530495 1.17290161 13.6182251 1.18788147 C15.35855011 1.19651466 15.35855011 1.19651466 17.1340332 1.20532227 C18.36371323 1.21522186 19.59339325 1.22512146 20.8603363 1.23532104 C24.22356408 1.26145971 27.58676875 1.28334191 30.95003533 1.30332303 C34.46811455 1.32523325 37.98615127 1.35259724 41.50419617 1.37937927 C48.16220822 1.4292382 54.82024395 1.47420217 61.47830218 1.51740164 C69.05992222 1.56683223 76.64149961 1.62172872 84.22307837 1.67708123 C99.81534614 1.79079685 115.40765318 1.89765846 131 2 C131 2.33 131 2.66 131 3 C88.1 3 45.2 3 1 3 C0.67 2.01 0.34 1.02 0 0 Z " fill="#BDE8FF" transform="translate(54,348)"/>
<path d="M0 0 C0.33 0.99 0.66 1.98 1 3 C1.66 3 2.32 3 3 3 C3.04635069 15.54358923 3.08188317 28.08715806 3.10362434 40.63081551 C3.11405926 46.45540518 3.12821328 52.27993624 3.15087891 58.10449219 C3.17261748 63.72602794 3.18457082 69.34750733 3.18975449 74.96908188 C3.1934484 77.11326866 3.20066166 79.25745237 3.21146011 81.40161514 C3.22598836 84.40599472 3.22797736 87.41014169 3.22705078 90.41455078 C3.23424133 91.30000076 3.24143188 92.18545074 3.24884033 93.09773254 C3.23314757 97.80340703 2.81703475 101.57466568 1 106 C0.34 106 -0.32 106 -1 106 C-1 107.65 -1 109.3 -1 111 C-2.65 111.99 -4.3 112.98 -6 114 C-4.9427871 111.23498164 -3.80669719 108.6288586 -2.4375 106 C-1.1228515 103.25638574 -0.43974973 100.99029816 0 98 C0.66 98 1.32 98 2 98 C2 67.31 2 36.62 2 5 C1.34 5 0.68 5 0 5 C0 3.35 0 1.7 0 0 Z " fill="#BFE6FE" transform="translate(500,221)"/>
<path d="M0 0 C0.66 0.33 1.32 0.66 2 1 C0.6875 3 0.6875 3 -1 5 C-1.99 5 -2.98 5 -4 5 C-4 5.66 -4 6.32 -4 7 C-4.99 7 -5.98 7 -7 7 C-7 7.66 -7 8.32 -7 9 C-8.0725 9.28875 -9.145 9.5775 -10.25 9.875 C-13.01375809 11.01301804 -13.87418367 11.7748359 -15.35546875 14.42578125 C-16.33652871 16.92978627 -17.22247765 19.42596639 -18 22 C-18.66 22 -19.32 22 -20 22 C-19.98839844 22.556875 -19.97679687 23.11375 -19.96484375 23.6875 C-19.90323567 28.89778343 -20.25000656 33.8437951 -21 39 C-21.33 39 -21.66 39 -22 39 C-23.29649407 19.23915084 -23.29649407 19.23915084 -18.9375 13.625 C-16.9921875 11.68359375 -16.9921875 11.68359375 -15 10 C-14.13761719 9.15115234 -14.13761719 9.15115234 -13.2578125 8.28515625 C-9.44256901 4.68968485 -5.00537507 1.66845836 0 0 Z " fill="#1F6EE4" transform="translate(211,30)"/>
<path d="M0 0 C0.98554871 -0.00058411 1.97109741 -0.00116821 2.98651123 -0.00177002 C6.24958309 0.00102046 9.5117456 0.03215869 12.7746582 0.06347656 C15.03481039 0.0709355 17.29496904 0.07663007 19.55513 0.08062744 C25.50816659 0.09591097 31.46081373 0.1352166 37.41369629 0.17944336 C43.48643729 0.22033724 49.55924112 0.2386259 55.63208008 0.25878906 C67.55087112 0.30170789 79.46937292 0.36999238 91.38793945 0.45410156 C91.38793945 0.78410156 91.38793945 1.11410156 91.38793945 1.45410156 C90.18826035 1.46218842 88.98858124 1.47027527 87.75254822 1.47860718 C76.43791921 1.5561453 65.12340931 1.64390409 53.80893612 1.74162865 C47.99227717 1.79154049 42.17563594 1.83787112 36.35888672 1.87597656 C30.74374322 1.91289373 25.12874975 1.95927141 19.51373482 2.01216507 C17.37320148 2.0306748 15.23263603 2.04579534 13.09205437 2.05744553 C10.09018518 2.07436639 7.08865704 2.10341588 4.08691406 2.13525391 C2.764132 2.13849419 2.764132 2.13849419 1.41462708 2.14179993 C-3.63095592 2.21000843 -7.82653132 2.83334668 -12.61206055 4.45410156 C-10.07230577 -1.11437101 -5.32733011 -0.08205838 0 0 Z " fill="#0059EB" transform="translate(222.612060546875,29.5458984375)"/>
<path d="M0 0 C-0.33 0.99 -0.66 1.98 -1 3 C-32.68 3 -64.36 3 -97 3 C-97 2.67 -97 2.34 -97 2 C-95.86438629 1.98969254 -94.72877258 1.97938507 -93.55874634 1.96876526 C-82.87539315 1.8711611 -72.1920999 1.76843953 -61.50884438 1.66066074 C-56.01600811 1.60541163 -50.52316655 1.55198845 -45.03027344 1.50268555 C-39.73290635 1.45507134 -34.43560545 1.40272961 -29.13831711 1.34705925 C-27.11365779 1.32662234 -25.08898031 1.3079115 -23.06428909 1.29092598 C-20.23631451 1.26691153 -17.40846574 1.23685296 -14.58056641 1.20532227 C-13.31497643 1.19668907 -13.31497643 1.19668907 -12.02381897 1.18788147 C-7.73923917 1.13330191 -4.19286089 0 0 0 Z " fill="#C9F1FE" transform="translate(321,508)"/>
<path d="M0 0 C1.66289063 0.00676758 1.66289063 0.00676758 3.359375 0.01367188 C6.07297399 0.02536842 8.78645761 0.04175914 11.5 0.0625 C11.17 0.7225 10.84 1.3825 10.5 2.0625 C9.24445313 2.02769531 7.98890625 1.99289063 6.6953125 1.95703125 C-9.19986836 1.64561846 -9.19986836 1.64561846 -23.5 8.0625 C-26.72791555 10.2144437 -27.78400809 10.26336443 -31.5 10.0625 C-28.58953413 5.87142915 -25.31668696 2.82977363 -20.5 1.0625 C-13.67553101 -0.13409807 -6.9124235 -0.05374492 0 0 Z " fill="#0257E7" transform="translate(70.5,196.9375)"/>
<path d="M0 0 C0 1.65 0 3.3 0 5 C-0.639375 5.20625 -1.27875 5.4125 -1.9375 5.625 C-4.30646148 6.85474601 -4.30646148 6.85474601 -4.5625 9.75 C-4.7790625 11.35875 -4.7790625 11.35875 -5 13 C-5.495 13.886875 -5.99 14.77375 -6.5 15.6875 C-8.61218395 20.35190623 -8.73846583 24.93164819 -9 30 C-9.33 30 -9.66 30 -10 30 C-10.02700675 27.08327116 -10.04684237 24.16679323 -10.0625 21.25 C-10.07087891 20.425 -10.07925781 19.6 -10.08789062 18.75 C-10.09111328 17.95078125 -10.09433594 17.1515625 -10.09765625 16.328125 C-10.10289307 15.5949707 -10.10812988 14.86181641 -10.11352539 14.10644531 C-9.8224011 8.7046811 -7.96905087 6.68554724 -4 3 C-3.4225 2.401875 -2.845 1.80375 -2.25 1.1875 C-1 0 -1 0 0 0 Z " fill="#2C71E1" transform="translate(39,207)"/>
<path d="M0 0 C9.75898728 0.1599834 16.82967639 4.64437284 23.6875 11.4375 C24.450625 12.283125 25.21375 13.12875 26 14 C25.67 15.32 25.34 16.64 25 18 C22.69 17.34 20.38 16.68 18 16 C18 15.34 18 14.68 18 14 C18.66 14 19.32 14 20 14 C19.29660434 11.49034386 19.29660434 11.49034386 18 9 C15.95894361 8.11306697 15.95894361 8.11306697 14 8 C14 7.34 14 6.68 14 6 C13.4225 5.855625 12.845 5.71125 12.25 5.5625 C10.16666667 5.04166667 8.08333333 4.52083333 6 4 C6 3.34 6 2.68 6 2 C3.03 1.505 3.03 1.505 0 1 C0 0.67 0 0.34 0 0 Z " fill="#1664DD" transform="translate(310,29)"/>
<path d="M0 0 C0 0.66 0 1.32 0 2 C-21.78 2 -43.56 2 -66 2 C-66 1.67 -66 1.34 -66 1 C-64.90125801 0.9845388 -64.90125801 0.9845388 -63.78031921 0.96876526 C-56.87930492 0.87081236 -49.9783718 0.76830097 -43.07750225 0.66066074 C-39.52964549 0.60548208 -35.98178041 0.55207023 -32.43383789 0.50268555 C-28.35554042 0.44584148 -24.27739562 0.38133199 -20.19921875 0.31640625 C-18.92414963 0.29969376 -17.64908051 0.28298126 -16.33537292 0.26576233 C-15.15437515 0.24581711 -13.97337738 0.22587189 -12.7565918 0.20532227 C-11.71512497 0.18977798 -10.67365814 0.1742337 -9.60063171 0.15821838 C-1.14732838 -0.35606743 -1.14732838 -0.35606743 0 0 Z " fill="#B7E4FF" transform="translate(477,349)"/>
<path d="M0 0 C5.04814412 4.11822284 6.0956187 7.64559482 7 14 C7.23870923 17.65200909 7.23466197 21.28288473 7.1953125 24.94140625 C7.19106766 26.45383156 7.19106766 26.45383156 7.18673706 27.99681091 C7.17563177 31.18549983 7.15054545 34.37389741 7.125 37.5625 C7.11495772 39.73762612 7.10583406 41.91275669 7.09765625 44.08789062 C7.07572416 49.3920248 7.04234411 54.69599157 7 60 C6.67 60 6.34 60 6 60 C5.98786972 59.17767128 5.98786972 59.17767128 5.97549438 58.33872986 C5.88916364 52.61174063 5.78964897 46.88508622 5.68261719 41.15844727 C5.64443094 39.02373903 5.60956032 36.88896871 5.578125 34.75415039 C5.53224923 31.67832314 5.47429206 28.6029194 5.4140625 25.52734375 C5.40251129 24.57915268 5.39096008 23.63096161 5.37905884 22.65403748 C5.37778722 13.83645844 5.37778722 13.83645844 1.375 6.375 C0 5 0 5 -0.1875 2.3125 C-0.125625 1.549375 -0.06375 0.78625 0 0 Z " fill="#1B66D7" transform="translate(336,44)"/>
<path d="M0 0 C3.35620271 1.38877354 5.07298728 2.91677965 7 6 C7 6.66 7 7.32 7 8 C7.99 8.33 8.98 8.66 10 9 C10 9.66 10 10.32 10 11 C10.66 11 11.32 11 12 11 C12.99 12.65 13.98 14.3 15 16 C14.67 16.66 14.34 17.32 14 18 C2.83448959 8.41129832 2.83448959 8.41129832 0 3 C0 2.01 0 1.02 0 0 Z " fill="#1B61D8" transform="translate(190,487)"/>
<path d="M0 0 C0.33 0 0.66 0 1 0 C1.05828635 4.20827473 1.093693 8.41644489 1.125 12.625 C1.15013672 14.40970703 1.15013672 14.40970703 1.17578125 16.23046875 C1.18222656 17.38417969 1.18867188 18.53789062 1.1953125 19.7265625 C1.20578613 20.78439941 1.21625977 21.84223633 1.22705078 22.93212891 C0.98270857 26.23363888 0.16882977 28.91412763 -1 32 C-1.66 32 -2.32 32 -3 32 C-3 33.65 -3 35.3 -3 37 C-4.65 37.99 -6.3 38.98 -8 40 C-6.9427871 37.23498164 -5.80669719 34.6288586 -4.4375 32 C-3.1228515 29.25638574 -2.43974973 26.99029816 -2 24 C-1.34 24 -0.68 24 0 24 C0 16.08 0 8.16 0 0 Z " fill="#B5DFFE" transform="translate(502,295)"/>
<path d="M0 0 C0.76171875 1.6875 0.76171875 1.6875 1 4 C-0.73046875 6.4375 -0.73046875 6.4375 -3.1875 9 C-3.98542969 9.845625 -4.78335937 10.69125 -5.60546875 11.5625 C-6.39566406 12.366875 -7.18585938 13.17125 -8 14 C-8.70253906 14.73734375 -9.40507812 15.4746875 -10.12890625 16.234375 C-12.27019651 18.25496623 -14.22670346 19.07556782 -17 20 C-17 19.01 -17 18.02 -17 17 C-15.68 17 -14.36 17 -13 17 C-13 16.34 -13 15.68 -13 15 C-12.01 15 -11.02 15 -10 15 C-10 13.68 -10 12.36 -10 11 C-9.360625 10.7525 -8.72125 10.505 -8.0625 10.25 C-5.81258459 9.18437567 -5.81258459 9.18437567 -5.25 6.875 C-5.1675 6.25625 -5.085 5.6375 -5 5 C-3.68 4.67 -2.36 4.34 -1 4 C-0.67 2.68 -0.34 1.36 0 0 Z " fill="#1F70E1" transform="translate(340,486)"/>
<path d="M0 0 C7.19989839 0.2666629 12.20641863 2.74233883 18 7 C18.33 7.66 18.66 8.32 19 9 C16.69 8.67 14.38 8.34 12 8 C12 7.34 12 6.68 12 6 C10.82630859 5.72736328 10.82630859 5.72736328 9.62890625 5.44921875 C8.61699219 5.19785156 7.60507812 4.94648438 6.5625 4.6875 C5.55316406 4.44386719 4.54382813 4.20023438 3.50390625 3.94921875 C2.26447266 3.47935547 2.26447266 3.47935547 1 3 C0.67 2.01 0.34 1.02 0 0 Z " fill="#125ADA" transform="translate(470,197)"/>
<path d="M0 0 C0.33 0 0.66 0 1 0 C1.05859857 3.35409194 1.09379582 6.70805017 1.125 10.0625 C1.14175781 11.00544922 1.15851563 11.94839844 1.17578125 12.91992188 C1.21372771 18.36523938 0.81252643 22.85499388 -1 28 C-1.99 28 -2.98 28 -4 28 C-3.68817931 26.58318366 -3.37551263 25.16655349 -3.0625 23.75 C-2.88847656 22.96109375 -2.71445312 22.1721875 -2.53515625 21.359375 C-2.21765604 19.95959304 -1.87246822 18.56489157 -1.46875 17.1875 C-0.76562527 13.90625128 -0.63017518 10.59180892 -0.4375 7.25 C-0.39431641 6.55261719 -0.35113281 5.85523438 -0.30664062 5.13671875 C-0.20110404 3.42468078 -0.1001009 1.71236439 0 0 Z " fill="#0C5AE1" transform="translate(500,298)"/>
<path d="M0 0 C0.66 0 1.32 0 2 0 C1.86287598 0.55220215 1.72575195 1.1044043 1.58447266 1.67333984 C-0.14199859 9.31030887 -0.43201975 16.81734072 -0.625 24.625 C-0.66367188 25.91535156 -0.70234375 27.20570312 -0.7421875 28.53515625 C-0.83566342 31.6899687 -0.92142313 34.84478727 -1 38 C-1.33 38 -1.66 38 -2 38 C-2.0499542 34.03478915 -2.08597787 30.06970369 -2.10986328 26.10424805 C-2.12470245 24.10263623 -2.15013361 22.10111188 -2.17578125 20.09960938 C-2.21124961 13.05913966 -1.89368974 6.79193445 0 0 Z " fill="#DFF1FE" transform="translate(187,51)"/>
<path d="M0 0 C0.33 0.66 0.66 1.32 1 2 C-0.24043916 5.60855029 -1.71727692 6.35863846 -5 8 C-5.66 9.32 -6.32 10.64 -7 12 C-11.455 12.495 -11.455 12.495 -16 13 C-15.67 12.34 -15.34 11.68 -15 11 C-13.68 11 -12.36 11 -11 11 C-11 10.34 -11 9.68 -11 9 C-10.236875 8.566875 -9.47375 8.13375 -8.6875 7.6875 C-6.03713747 6.16247642 -6.03713747 6.16247642 -4.3125 4.3125 C-3.6628125 3.6628125 -3.6628125 3.6628125 -3 3 C-2.34 3 -1.68 3 -1 3 C-0.67 2.01 -0.34 1.02 0 0 Z " fill="#C0E8FD" transform="translate(493,335)"/>
<path d="M0 0 C0.66 0.33 1.32 0.66 2 1 C-0.06241643 5.01628463 -1.85613631 7.125395 -6 9 C-8.8125 9.1875 -8.8125 9.1875 -11 9 C-7.86394624 4.48408258 -4.8731652 2.3463388 0 0 Z " fill="#2571E1" transform="translate(50,198)"/>
<path d="M0 0 C-2.42384246 2.13298136 -4.16554812 3.04685324 -7.3125 3.9375 C-11.43627394 5.12570605 -14.34660956 6.7793117 -18 9 C-18.99 9.495 -18.99 9.495 -20 10 C-20 9.01 -20 8.02 -20 7 C-18.68 6.67 -17.36 6.34 -16 6 C-16 5.34 -16 4.68 -16 4 C-14.68 4 -13.36 4 -12 4 C-12 3.34 -12 2.68 -12 2 C-8.09971775 -0.60018816 -4.52565431 -0.15085514 0 0 Z " fill="#C5EBFB" transform="translate(60,195)"/>
<path d="M0 0 C4.83230278 2.23371639 9.68553695 2.16741715 14.93359375 2.29296875 C15.90361328 2.32712891 16.87363281 2.36128906 17.87304688 2.39648438 C20.24728012 2.47835449 22.62117252 2.54769953 24.99609375 2.60546875 C24.99609375 2.93546875 24.99609375 3.26546875 24.99609375 3.60546875 C21.30866141 3.66397799 17.62135005 3.69923548 13.93359375 3.73046875 C12.89525391 3.74722656 11.85691406 3.76398438 10.78710938 3.78125 C5.14625876 3.81706492 0.27343852 3.69883991 -5.00390625 1.60546875 C-5.33390625 0.94546875 -5.66390625 0.28546875 -6.00390625 -0.39453125 C-3.00390625 -1.39453125 -3.00390625 -1.39453125 0 0 Z " fill="#015AD2" transform="translate(212.00390625,505.39453125)"/>
<path d="M0 0 C0.33 0 0.66 0 1 0 C1 2.31 1 4.62 1 7 C0.01 7.33 -0.98 7.66 -2 8 C-2.33 9.32 -2.66 10.64 -3 12 C-3.99 12.33 -4.98 12.66 -6 13 C-6 13.66 -6 14.32 -6 15 C-7.32 14.67 -8.64 14.34 -10 14 C-9.52949219 13.57589844 -9.05898438 13.15179688 -8.57421875 12.71484375 C-4.34461679 8.7304361 -1.90636389 5.49481356 0 0 Z " fill="#B8E1F9" transform="translate(341,486)"/>
<path d="M0 0 C3.79303725 1.00193437 6.71536341 1.81024227 10 4 C10 4.99 10 5.98 10 7 C10.99 7.33 11.98 7.66 13 8 C11 9 11 9 9.125 8.875 C6.15145779 7.65060027 4.94381761 5.50815175 3 3 C2.01 2.67 1.02 2.34 0 2 C0 1.34 0 0.68 0 0 Z " fill="#447FDF" transform="translate(39,338)"/>
<path d="M0 0 C1.7435756 3.11930825 2.54645178 5.99110451 3.1875 9.5 C3.36667969 10.4384375 3.54585937 11.376875 3.73046875 12.34375 C3.99098064 14.91111354 3.80670869 16.57415258 3 19 C-0.05654046 14.80427648 -0.33143207 11.82107724 -0.1875 6.6875 C-0.14689453 4.80611328 -0.14689453 4.80611328 -0.10546875 2.88671875 C-0.07066406 1.93410156 -0.03585938 0.98148437 0 0 Z " fill="#1861DF" transform="translate(30,312)"/>
<path d="M0 0 C0.72018311 0.15847412 1.44036621 0.31694824 2.18237305 0.48022461 C4.85282412 0.97285006 7.37204546 1.20002649 10.08203125 1.31640625 C11.01337891 1.35830078 11.94472656 1.40019531 12.90429688 1.44335938 C13.86400391 1.48267578 14.82371094 1.52199219 15.8125 1.5625 C16.79154297 1.60568359 17.77058594 1.64886719 18.77929688 1.69335938 C21.18607027 1.7990226 23.59293983 1.90112327 26 2 C26 2.33 26 2.66 26 3 C17.75 3 9.5 3 1 3 C0.67 2.01 0.34 1.02 0 0 Z " fill="#C6F0FE" transform="translate(54,348)"/>
<path d="M0 0 C0.33 0 0.66 0 1 0 C1 2.64 1 5.28 1 8 C0.34 8 -0.32 8 -1 8 C-1 9.65 -1 11.3 -1 13 C-3.475 14.485 -3.475 14.485 -6 16 C-4.9427871 13.23498164 -3.80669719 10.6288586 -2.4375 8 C-1.1228515 5.25638574 -0.43974973 2.99029816 0 0 Z " fill="#A7CFF6" transform="translate(500,319)"/>
<path d="M0 0 C1.98 0.66 3.96 1.32 6 2 C5.67 3.32 5.34 4.64 5 6 C2.69 5.34 0.38 4.68 -2 4 C-2 3.34 -2 2.68 -2 2 C-1.34 2 -0.68 2 0 2 C0 1.34 0 0.68 0 0 Z " fill="#0757E9" transform="translate(330,41)"/>
<path d="M0 0 C-1.2065625 0.5878125 -1.2065625 0.5878125 -2.4375 1.1875 C-6.68805176 3.35006142 -10.8434773 5.66311057 -15 8 C-14.67 6.68 -14.34 5.36 -14 4 C-13.030625 3.71125 -12.06125 3.4225 -11.0625 3.125 C-7.89335797 2.35785318 -7.89335797 2.35785318 -7 0 C-4.0262656 -1.09036928 -3.11592499 -1.03864166 0 0 Z " fill="#C7EBFD" transform="translate(213,30)"/>
<path d="M0 0 C2.64 0.66 5.28 1.32 8 2 C8 3.98 8 5.96 8 8 C6.85073734 7.04578192 5.70569459 6.08647955 4.5625 5.125 C3.92441406 4.59132813 3.28632813 4.05765625 2.62890625 3.5078125 C1 2 1 2 0 0 Z " fill="#BCDDF8" transform="translate(329,36)"/>
<path d="M0 0 C3.96 1.98 7.92 3.96 12 6 C12 6.33 12 6.66 12 7 C3.8125 6.05528846 3.8125 6.05528846 1 4 C0.67 2.68 0.34 1.36 0 0 Z " fill="#CFEBFC" transform="translate(200,502)"/>
<path d="M0 0 C0.33 0 0.66 0 1 0 C1.48108275 1.41601714 1.95978141 2.83284437 2.4375 4.25 C2.83775391 5.43335938 2.83775391 5.43335938 3.24609375 6.640625 C3.91954708 8.74821988 4.49150595 10.84753973 5 13 C4.01 12.67 3.02 12.34 2 12 C1.67 10.02 1.34 8.04 1 6 C0.34 6 -0.32 6 -1 6 C-0.67 4.02 -0.34 2.04 0 0 Z " fill="#C0DCF7" transform="translate(28,318)"/>
<path d="M0 0 C0.66 0.33 1.32 0.66 2 1 C-2.30769231 5.92307692 -2.30769231 5.92307692 -5.8125 6.3125 C-6.8953125 6.1578125 -6.8953125 6.1578125 -8 6 C-8 5.34 -8 4.68 -8 4 C-6.71349294 3.30289269 -5.42059335 2.61757124 -4.125 1.9375 C-3.40570313 1.55464844 -2.68640625 1.17179687 -1.9453125 0.77734375 C-1.30335938 0.52082031 -0.66140625 0.26429688 0 0 Z " fill="#B6E5FC" transform="translate(329,502)"/>
<path d="M0 0 C3.53586014 3.17320782 5.58578031 5.16743695 6 10 C1.77202073 6.91709845 1.77202073 6.91709845 0 5 C-0.375 2.1875 -0.375 2.1875 0 0 Z " fill="#3273D4" transform="translate(336,44)"/>
<path d="M0 0 C0.66 0 1.32 0 2 0 C3.65 3.63 5.3 7.26 7 11 C3.66428571 9.88809524 3.41582921 9.53679327 1.8125 6.625 C1.46832031 6.01914062 1.12414062 5.41328125 0.76953125 4.7890625 C0 3 0 3 0 0 Z " fill="#B4D0F2" transform="translate(187,485)"/>
<path d="M0 0 C0 0.66 0 1.32 0 2 C-1.48117801 1.71872579 -2.95993249 1.42466268 -4.4375 1.125 C-5.26121094 0.96257812 -6.08492187 0.80015625 -6.93359375 0.6328125 C-7.61550781 0.42398437 -8.29742187 0.21515625 -9 0 C-9.33 -0.66 -9.66 -1.32 -10 -2 C-5.82412255 -3.39195915 -3.86525224 -1.82323219 0 0 Z " fill="#2C77DB" transform="translate(216,507)"/>
<path d="M0 0 C0.66 0.33 1.32 0.66 2 1 C2 1.66 2 2.32 2 3 C3.65 3 5.3 3 7 3 C7.33 3.66 7.66 4.32 8 5 C2.375 5.25 2.375 5.25 -1 3 C-0.67 2.01 -0.34 1.02 0 0 Z " fill="#0557DD" transform="translate(50,342)"/>
<path d="M0 0 C1.32 0.33 2.64 0.66 4 1 C0.535 3.97 0.535 3.97 -3 7 C-3 5.68 -3 4.36 -3 3 C-2.01 3 -1.02 3 0 3 C0 2.01 0 1.02 0 0 Z " fill="#D2EDFC" transform="translate(36,205)"/>
<path d="M0 0 C0 0.66 0 1.32 0 2 C-2.64 2 -5.28 2 -8 2 C-6.14210462 -1.71579076 -3.44525918 -1.06921837 0 0 Z " fill="#C6EDFE" transform="translate(477,349)"/>
<path d="M0 0 C0.33 0 0.66 0 1 0 C1 2.31 1 4.62 1 7 C-0.65 7.66 -2.3 8.32 -4 9 C-3.2884375 7.88625 -3.2884375 7.88625 -2.5625 6.75 C-1.22130673 4.38949985 -0.487688 2.63351523 0 0 Z " fill="#C2E7FD" transform="translate(341,486)"/>
<path d="M0 0 C1 2 1 2 0.375 4.0625 C-1 6 -1 6 -3.625 6.75 C-4.800625 6.87375 -4.800625 6.87375 -6 7 C-4.625 5 -4.625 5 -3 3 C-2.34 3 -1.68 3 -1 3 C-0.67 2.01 -0.34 1.02 0 0 Z " fill="#A2D1F6" transform="translate(493,335)"/>
<path d="M0 0 C2.88437779 1.29299694 4.87219421 2.65941363 7 5 C4.69 4.67 2.38 4.34 0 4 C0 2.68 0 1.36 0 0 Z " fill="#2366E0" transform="translate(482,201)"/>
<path d="M0 0 C1.98 0 3.96 0 6 0 C6 1.65 6 3.3 6 5 C3.98079663 3.69593116 1.98075027 2.36176581 0 1 C0 0.67 0 0.34 0 0 Z " fill="#C8E5FC" transform="translate(485,202)"/>
<path d="M0 0 C0.66 0 1.32 0 2 0 C1.34 3.3 0.68 6.6 0 10 C-0.33 10 -0.66 10 -1 10 C-1.125 2.25 -1.125 2.25 0 0 Z " fill="#C8E1F8" transform="translate(187,51)"/>
<path d="M0 0 C2.86477034 1.05041579 3.83913226 1.70124563 5.3125 4.4375 C6 7 6 7 5 10 C3.33333333 6.66666667 1.66666667 3.33333333 0 0 Z " fill="#C6E8FB" transform="translate(337,44)"/>
</svg>
